<svg xmlns="http://www.w3.org/2000/svg" width="36" height="31.507" viewBox="0 0 36 31.507">
  <defs>
    <style>
      .cls-1 {
        fill: #fff;
      }
    </style>
  </defs>
  <path id="Icon_awesome-hand-rock" data-name="Icon awesome-hand-rock" class="cls-1" d="M32.681,5.625A3.375,3.375,0,0,0,29.25,9h-.562V6.806a3.418,3.418,0,0,0-3.319-3.431A3.375,3.375,0,0,0,21.938,6.75V9h-.562V5.681A3.418,3.418,0,0,0,18.056,2.25a3.375,3.375,0,0,0-3.431,3.375V9h-.562V6.806a3.418,3.418,0,0,0-3.319-3.431A3.375,3.375,0,0,0,7.313,6.75v9.563l-.562-.5V12.431A3.418,3.418,0,0,0,3.431,9,3.375,3.375,0,0,0,0,12.375v4.669a6.766,6.766,0,0,0,2.264,5.048l7.854,6.982A3.39,3.39,0,0,1,11.25,31.6v.471a1.683,1.683,0,0,0,1.688,1.688H29.813A1.683,1.683,0,0,0,31.5,32.07v-.2a6.85,6.85,0,0,1,.527-2.623l3.445-8.177A6.721,6.721,0,0,0,36,18.443V9.056a3.413,3.413,0,0,0-3.319-3.431Z" transform="translate(0 -2.25)"/>
</svg>
