<svg xmlns="http://www.w3.org/2000/svg" width="36" height="31.5" viewBox="0 0 36 31.5">
  <defs>
    <style>
      .cls-1 {
        fill: #fff;
      }
    </style>
  </defs>
  <path id="Icon_awesome-hand-scissors" data-name="Icon awesome-hand-scissors" class="cls-1" d="M20.813,30.938A2.812,2.812,0,0,0,18,28.125v-.563h2.25a2.813,2.813,0,1,0,0-5.625H18v-.562H32.625a3.375,3.375,0,0,0,0-6.75H18v-.954l12.484-4.9a3.375,3.375,0,1,0-2.468-6.283L14.632,7.741,12.884,5.555a2.813,2.813,0,0,0-3.592-.685l-7.875,4.5A2.813,2.813,0,0,0,0,11.813V28.688a2.813,2.813,0,0,0,2.168,2.738l9.563,2.25a2.811,2.811,0,0,0,.644.075H18A2.812,2.812,0,0,0,20.813,30.938Z" transform="translate(0 -2.25)"/>
</svg>
