<svg xmlns="http://www.w3.org/2000/svg" width="94.436" height="107.902" viewBox="0 0 94.436 107.902">
  <defs>
    <style>
      .cls-1 {
        fill: #fff;
      }
    </style>
  </defs>
  <path id="Icon_awesome-hand-rock" data-name="Icon awesome-hand-rock" class="cls-1" d="M97.955,84.319A10.116,10.116,0,0,1,87.67,74.2H85.984v6.575a10.245,10.245,0,0,1-9.947,10.284A10.116,10.116,0,0,1,65.753,80.947V74.2H64.067v9.947A10.245,10.245,0,0,1,54.12,94.435,10.116,10.116,0,0,1,43.835,84.319V74.2H42.149v6.575A10.245,10.245,0,0,1,32.2,91.063,10.116,10.116,0,0,1,21.918,80.947V52.286l-1.686,1.5V63.919A10.245,10.245,0,0,1,10.284,74.2,10.116,10.116,0,0,1,0,64.088V50.094A20.28,20.28,0,0,1,6.786,34.963l23.54-20.927A10.161,10.161,0,0,0,33.719,6.47V5.058A5.046,5.046,0,0,1,38.777,0H89.356a5.046,5.046,0,0,1,5.058,5.058v.611a20.531,20.531,0,0,0,1.581,7.861l10.327,24.51A20.144,20.144,0,0,1,107.9,45.9V74.035A10.231,10.231,0,0,1,97.955,84.319Z" transform="translate(94.436) rotate(90)"/>
</svg>
