<svg xmlns="http://www.w3.org/2000/svg" width="94.436" height="107.902" viewBox="0 0 94.436 107.902">
  <defs>
    <style>
      .cls-1 {
        fill: #fff;
      }
    </style>
  </defs>
  <path id="Icon_awesome-hand-rock" data-name="Icon awesome-hand-rock" class="cls-1" d="M97.955,12.367A10.116,10.116,0,0,0,87.67,22.482H85.984V15.907A10.245,10.245,0,0,0,76.037,5.623,10.116,10.116,0,0,0,65.753,15.738v6.744H64.067V12.535A10.245,10.245,0,0,0,54.12,2.251,10.116,10.116,0,0,0,43.835,12.367V22.482H42.149V15.907A10.245,10.245,0,0,0,32.2,5.623,10.116,10.116,0,0,0,21.918,15.738V44.4l-1.686-1.5V32.767a10.245,10.245,0,0,0-9.947-10.284A10.116,10.116,0,0,0,0,32.6V46.592A20.28,20.28,0,0,0,6.786,61.723L30.326,82.65a10.161,10.161,0,0,1,3.393,7.566v1.412a5.046,5.046,0,0,0,5.058,5.058H89.356a5.046,5.046,0,0,0,5.058-5.058v-.611a20.531,20.531,0,0,1,1.581-7.861l10.327-24.51a20.144,20.144,0,0,0,1.581-7.861V22.651a10.231,10.231,0,0,0-9.947-10.284Z" transform="translate(96.686) rotate(90)"/>
</svg>
