<svg xmlns="http://www.w3.org/2000/svg" width="810" height="161" viewBox="0 0 810 161">
  <defs>
    <style>
      .cls-1, .cls-2 {
        fill: #5899e2;
        font-family: SegoeUI-Bold, Segoe UI;
        font-weight: 700;
        letter-spacing: 0.083em;
      }

      .cls-1 {
        font-size: 40px;
      }

      .cls-2 {
        font-size: 66px;
      }

      .cls-3 {
        fill: #fff;
      }
    </style>
  </defs>
  <g id="Group_8" data-name="Group 8" transform="translate(-555 -189)">
    <text id="Game" class="cls-1" transform="translate(897 340)"><tspan x="0" y="0">GAME</tspan></text>
    <g id="Group_1" data-name="Group 1">
      <text id="R_ck_P_per_S_issors" data-name="R  ck P  per S  issors" class="cls-2" transform="translate(555 260)"><tspan x="0" y="0" xml:space="preserve">R  CK</tspan><tspan class="cls-3" y="0"> </tspan><tspan y="0" xml:space="preserve">P  PER</tspan><tspan class="cls-3" y="0"> </tspan><tspan y="0" xml:space="preserve">S  ISSORS</tspan></text>
      <path id="Icon_awesome-hand-rock" data-name="Icon awesome-hand-rock" class="cls-3" d="M32.681,5.625A3.375,3.375,0,0,0,29.25,9h-.562V6.806a3.418,3.418,0,0,0-3.319-3.431A3.375,3.375,0,0,0,21.938,6.75V9h-.562V5.681A3.418,3.418,0,0,0,18.056,2.25a3.375,3.375,0,0,0-3.431,3.375V9h-.562V6.806a3.418,3.418,0,0,0-3.319-3.431A3.375,3.375,0,0,0,7.313,6.75v9.563l-.562-.5V12.431A3.418,3.418,0,0,0,3.431,9,3.375,3.375,0,0,0,0,12.375v4.669a6.766,6.766,0,0,0,2.264,5.048l7.854,6.982A3.39,3.39,0,0,1,11.25,31.6v.471a1.683,1.683,0,0,0,1.688,1.688H29.813A1.683,1.683,0,0,0,31.5,32.07v-.2a6.85,6.85,0,0,1,.527-2.623l3.445-8.177A6.721,6.721,0,0,0,36,18.443V9.056a3.413,3.413,0,0,0-3.319-3.431Z" transform="translate(608 217.75)"/>
      <path id="Icon_awesome-hand-scissors" data-name="Icon awesome-hand-scissors" class="cls-3" d="M20.813,30.938A2.812,2.812,0,0,0,18,28.125v-.563h2.25a2.813,2.813,0,1,0,0-5.625H18v-.562H32.625a3.375,3.375,0,0,0,0-6.75H18v-.954l12.484-4.9a3.375,3.375,0,1,0-2.468-6.283L14.632,7.741,12.884,5.555a2.813,2.813,0,0,0-3.592-.685l-7.875,4.5A2.813,2.813,0,0,0,0,11.813V28.688a2.813,2.813,0,0,0,2.168,2.738l9.563,2.25a2.811,2.811,0,0,0,.644.075H18A2.812,2.812,0,0,0,20.813,30.938Z" transform="translate(1071 217.75)"/>
      <path id="Icon_awesome-hand-paper" data-name="Icon awesome-hand-paper" class="cls-3" d="M28.742,9a2.857,2.857,0,0,0-2.867,2.868V18h-.562V5.61a2.857,2.857,0,0,0-2.867-2.868,2.813,2.813,0,0,0-2.758,2.812V18h-.562V2.868A2.857,2.857,0,0,0,16.258,0,2.813,2.813,0,0,0,13.5,2.813V18h-.562V5.681A2.857,2.857,0,0,0,10.07,2.813,2.813,2.813,0,0,0,7.313,5.625V22.218l-2.225-3.06A2.813,2.813,0,1,0,.538,22.467L9.369,34.61A3.375,3.375,0,0,0,12.1,36H25.992a3.375,3.375,0,0,0,3.285-2.6l1.864-7.921a13.5,13.5,0,0,0,.359-3.092V11.813A2.812,2.812,0,0,0,28.742,9Z" transform="translate(821 215)"/>
    </g>
  </g>
</svg>
